<svg width="195pt" height="138pt" version="1.0" viewBox="0 0 195 138" xmlns="http://www.w3.org/2000/svg"><g transform="scale(.1 -.1)" fill="#2957a4"><polygon points="280 -260 1610 -60 1690 -140 1375 -1048 575 -1300" fill="#fcd427"/><path d="m73-59c-38-24-48-51-34-94 5-17 15-57 21-87 10-55 29-142 54-255 8-33 22-96 31-140 10-44 24-109 32-145s20-94 28-130 20-94 28-130 22-96 30-135c16-81 37-134 61-158 21-21 79-22 138-3 24 8 70 21 103 31 115 32 105 17 105 164 0 255-74 425-301 688-56 65-72 104-48 118 18 12 52-2 149-61 137-83 232-157 381-302 72-70 135-127 138-127 10 0 115 124 211 250 46 61 98 126 114 146 17 20 60 74 96 119 36 46 95 118 133 161 37 43 67 80 67 82 0 23-108 27-784 27-694 0-722-1-753-19z"/><circle cx="972" cy="-412" r="245" fill="#fcd427"/><path d="m1654-182c-181-351-293-644-311-807-4-45-3-61 7-61 12 0 106 25 150 40 14 5 59 18 100 30s86 25 100 30 58 18 97 30c81 24 113 53 113 102 0 23-47 181-77 258-21 55-126 361-133 388-4 19-11 36-13 39-3 3-18-19-33-49z"/></g></svg>